<svg width="76" height="60" viewBox="0 0 76 60" fill="white" xmlns="http://www.w3.org/2000/svg">
<path fill-rule="evenodd" clip-rule="evenodd" d="M71.25 30C71.25 29.5027 70.9997 29.0258 70.5544 28.6742C70.109 28.3225 69.5049 28.125 68.875 28.125H12.8582L27.8065 16.3275C28.0273 16.1532 28.2025 15.9462 28.322 15.7184C28.4415 15.4907 28.503 15.2465 28.503 15C28.503 14.7534 28.4415 14.5093 28.322 14.2816C28.2025 14.0538 28.0273 13.8468 27.8065 13.6725C27.5857 13.4982 27.3235 13.3599 27.035 13.2655C26.7465 13.1712 26.4373 13.1226 26.125 13.1226C25.8127 13.1226 25.5035 13.1712 25.215 13.2655C24.9264 13.3599 24.6643 13.4982 24.4435 13.6725L5.44347 28.6725C5.2223 28.8467 5.04682 29.0536 4.92709 29.2814C4.80736 29.5092 4.74573 29.7534 4.74573 30C4.74573 30.2466 4.80736 30.4908 4.92709 30.7186C5.04682 30.9464 5.2223 31.1533 5.44347 31.3275L24.4435 46.3275C24.6643 46.5018 24.9264 46.6401 25.215 46.7345C25.5035 46.8288 25.8127 46.8774 26.125 46.8774C26.4373 46.8774 26.7465 46.8288 27.035 46.7345C27.3235 46.6401 27.5857 46.5018 27.8065 46.3275C28.0273 46.1532 28.2025 45.9462 28.322 45.7184C28.4415 45.4907 28.503 45.2465 28.503 45C28.503 44.7534 28.4415 44.5093 28.322 44.2815C28.2025 44.0538 28.0273 43.8468 27.8065 43.6725L12.8582 31.875H68.875C69.5049 31.875 70.109 31.6774 70.5544 31.3258C70.9997 30.9742 71.25 30.4973 71.25 30Z" fill="black"/>
</svg>
