<svg width="35" height="28" viewBox="0 0 35 28" fill="none" xmlns="http://www.w3.org/2000/svg">
<path d="M3 1C3 0.734784 3.09833 0.48043 3.27337 0.292893C3.44841 0.105357 3.6858 0 3.93334 0H6.73337C6.94156 6.1623e-05 7.14376 0.0747014 7.3078 0.212049C7.47185 0.349398 7.58833 0.541568 7.63871 0.758L8.39472 4H30.0669C30.2087 4.00004 30.3486 4.03469 30.476 4.10131C30.6034 4.16792 30.715 4.26477 30.8022 4.38448C30.8895 4.50419 30.9502 4.64363 30.9796 4.79222C31.0091 4.9408 31.0066 5.09462 30.9723 5.242L28.1722 17.242C28.1218 17.4584 28.0054 17.6506 27.8413 17.788C27.6773 17.9253 27.4751 17.9999 27.2669 18H10.4667C10.2585 17.9999 10.0563 17.9253 9.8923 17.788C9.72825 17.6506 9.61178 17.4584 9.56139 17.242L6.00536 2H3.93334C3.6858 2 3.44841 1.89464 3.27337 1.70711C3.09833 1.51957 3 1.26522 3 1ZM8.86139 6L9.79473 10H12.3334V6H8.86139ZM14.2001 6V10H17.9335V6H14.2001ZM19.8002 6V10H23.5335V6H19.8002ZM25.4002 6V10H27.9389L28.8722 6H25.4002ZM27.4722 12H25.4002V16H26.5389L27.4722 12ZM23.5335 12H19.8002V16H23.5335V12ZM17.9335 12H14.2001V16H17.9335V12ZM12.3334 12H10.2614L11.1947 16H12.3334V12ZM12.3334 22C11.8383 22 11.3635 22.2107 11.0135 22.5858C10.6634 22.9609 10.4667 23.4696 10.4667 24C10.4667 24.5304 10.6634 25.0391 11.0135 25.4142C11.3635 25.7893 11.8383 26 12.3334 26C12.8285 26 13.3033 25.7893 13.6534 25.4142C14.0034 25.0391 14.2001 24.5304 14.2001 24C14.2001 23.4696 14.0034 22.9609 13.6534 22.5858C13.3033 22.2107 12.8285 22 12.3334 22ZM8.60005 24C8.60005 22.9391 8.99339 21.9217 9.69353 21.1716C10.3937 20.4214 11.3433 20 12.3334 20C13.3236 20 14.2732 20.4214 14.9733 21.1716C15.6735 21.9217 16.0668 22.9391 16.0668 24C16.0668 25.0609 15.6735 26.0783 14.9733 26.8284C14.2732 27.5786 13.3236 28 12.3334 28C11.3433 28 10.3937 27.5786 9.69353 26.8284C8.99339 26.0783 8.60005 25.0609 8.60005 24ZM25.4002 22C24.9051 22 24.4303 22.2107 24.0803 22.5858C23.7302 22.9609 23.5335 23.4696 23.5335 24C23.5335 24.5304 23.7302 25.0391 24.0803 25.4142C24.4303 25.7893 24.9051 26 25.4002 26C25.8953 26 26.3701 25.7893 26.7201 25.4142C27.0702 25.0391 27.2669 24.5304 27.2669 24C27.2669 23.4696 27.0702 22.9609 26.7201 22.5858C26.3701 22.2107 25.8953 22 25.4002 22ZM21.6668 24C21.6668 22.9391 22.0602 21.9217 22.7603 21.1716C23.4605 20.4214 24.4101 20 25.4002 20C26.3904 20 27.34 20.4214 28.0401 21.1716C28.7402 21.9217 29.1336 22.9391 29.1336 24C29.1336 25.0609 28.7402 26.0783 28.0401 26.8284C27.34 27.5786 26.3904 28 25.4002 28C24.4101 28 23.4605 27.5786 22.7603 26.8284C22.0602 26.0783 21.6668 25.0609 21.6668 24Z" fill="#05BC52"/>
</svg>
