<svg width="30" height="30" viewBox="0 0 30 30" fill="none" xmlns="http://www.w3.org/2000/svg">
<g clip-path="url(#clip0_15_25)">
<path fill-rule="evenodd" clip-rule="evenodd" d="M19.4137 11.5237C19.501 11.6108 19.5703 11.7143 19.6175 11.8282C19.6648 11.9421 19.6891 12.0642 19.6891 12.1875C19.6891 12.3108 19.6648 12.4329 19.6175 12.5468C19.5703 12.6607 19.501 12.7642 19.4137 12.8512L13.7887 18.4762C13.7016 18.5636 13.5982 18.6328 13.4843 18.6801C13.3704 18.7273 13.2483 18.7517 13.125 18.7517C13.0017 18.7517 12.8795 18.7273 12.7657 18.6801C12.6518 18.6328 12.5483 18.5636 12.4612 18.4762L9.64871 15.6637C9.56155 15.5766 9.49241 15.4731 9.44523 15.3592C9.39806 15.2453 9.37378 15.1233 9.37378 15C9.37378 14.8767 9.39806 14.7547 9.44523 14.6408C9.49241 14.5269 9.56155 14.4234 9.64871 14.3362C9.73588 14.2491 9.83936 14.1799 9.95324 14.1328C10.0671 14.0856 10.1892 14.0613 10.3125 14.0613C10.4357 14.0613 10.5578 14.0856 10.6717 14.1328C10.7856 14.1799 10.889 14.2491 10.9762 14.3362L13.125 16.4869L18.0862 11.5237C18.1733 11.4364 18.2768 11.3672 18.3907 11.3199C18.5045 11.2726 18.6266 11.2483 18.75 11.2483C18.8733 11.2483 18.9954 11.2726 19.1093 11.3199C19.2232 11.3672 19.3266 11.4364 19.4137 11.5237Z" fill="#44B26F"/>
<path d="M19.262 4.71186L17.5351 2.94186L18.8757 1.63311L20.042 2.82749L21.7107 2.80686C22.433 2.79831 23.1498 2.93428 23.8188 3.20678C24.4879 3.47927 25.0957 3.88279 25.6065 4.3936C26.1173 4.90441 26.5208 5.5122 26.7933 6.18123C27.0658 6.85026 27.2018 7.56702 27.1932 8.28936L27.1745 9.95811L28.367 11.1244C28.8834 11.6291 29.2938 12.2319 29.574 12.8974C29.8542 13.563 29.9986 14.2779 29.9986 15C29.9986 15.7221 29.8542 16.437 29.574 17.1025C29.2938 17.7681 28.8834 18.3709 28.367 18.8756L27.1726 20.0419L27.1932 21.7106C27.2018 22.433 27.0658 23.1497 26.7933 23.8187C26.5208 24.4878 26.1173 25.0956 25.6065 25.6064C25.0957 26.1172 24.4879 26.5207 23.8188 26.7932C23.1498 27.0657 22.433 27.2017 21.7107 27.1931L20.042 27.1744L18.8757 28.3669C18.371 28.8833 17.7682 29.2937 17.1026 29.5739C16.4371 29.8541 15.7222 29.9985 15.0001 29.9985C14.2779 29.9985 13.5631 29.8541 12.8975 29.5739C12.232 29.2937 11.6291 28.8833 11.1245 28.3669L9.9582 27.1725L8.28945 27.1931C7.56711 27.2017 6.85035 27.0657 6.18132 26.7932C5.51229 26.5207 4.9045 26.1172 4.39369 25.6064C3.88288 25.0956 3.47936 24.4878 3.20687 23.8187C2.93437 23.1497 2.7984 22.433 2.80695 21.7106L2.8257 20.0419L1.6332 18.8756C1.11672 18.3709 0.706317 17.7681 0.426121 17.1025C0.145926 16.437 0.00158691 15.7221 0.00158691 15C0.00158691 14.2779 0.145926 13.563 0.426121 12.8974C0.706317 12.2319 1.11672 11.6291 1.6332 11.1244L2.82758 9.95811L2.80695 8.28936C2.7984 7.56702 2.93437 6.85026 3.20687 6.18123C3.47936 5.5122 3.88288 4.90441 4.39369 4.3936C4.9045 3.88279 5.51229 3.47927 6.18132 3.20678C6.85035 2.93428 7.56711 2.79831 8.28945 2.80686L9.9582 2.82561L11.1245 1.63311C11.6291 1.11662 12.232 0.706225 12.8975 0.42603C13.5631 0.145834 14.2779 0.00149536 15.0001 0.00149536C15.7222 0.00149536 16.4371 0.145834 17.1026 0.42603C17.7682 0.706225 18.371 1.11662 18.8757 1.63311L17.5351 2.94186C17.205 2.60396 16.8107 2.33546 16.3754 2.15214C15.94 1.96882 15.4724 1.87439 15.0001 1.87439C14.5277 1.87439 14.0601 1.96882 13.6248 2.15214C13.1894 2.33546 12.7951 2.60396 12.4651 2.94186L10.7401 4.71186L8.26508 4.68186C7.79291 4.67658 7.32445 4.76572 6.88722 4.94404C6.44999 5.12235 6.0528 5.38626 5.719 5.72024C5.38519 6.05422 5.1215 6.45154 4.94341 6.88887C4.76532 7.32619 4.67643 7.7947 4.68195 8.26686L4.71195 10.7381L2.94195 12.465C2.60405 12.7951 2.33555 13.1894 2.15223 13.6247C1.96891 14.06 1.87448 14.5276 1.87448 15C1.87448 15.4723 1.96891 15.9399 2.15223 16.3753C2.33555 16.8106 2.60405 17.2049 2.94195 17.535L4.71195 19.26L4.68195 21.735C4.67667 22.2072 4.76581 22.6756 4.94413 23.1128C5.12245 23.5501 5.38635 23.9473 5.72033 24.2811C6.05431 24.6149 6.45163 24.8786 6.88896 25.0567C7.32628 25.2347 7.79479 25.3236 8.26695 25.3181L10.7382 25.2881L12.4651 27.0581C12.7951 27.396 13.1894 27.6645 13.6248 27.8478C14.0601 28.0311 14.5277 28.1256 15.0001 28.1256C15.4724 28.1256 15.94 28.0311 16.3754 27.8478C16.8107 27.6645 17.205 27.396 17.5351 27.0581L19.2601 25.2881L21.7351 25.3181C22.2072 25.3234 22.6757 25.2343 23.1129 25.0559C23.5502 24.8776 23.9474 24.6137 24.2812 24.2797C24.615 23.9458 24.8787 23.5484 25.0567 23.1111C25.2348 22.6738 25.3237 22.2053 25.3182 21.7331L25.2882 19.2619L27.0582 17.535C27.3961 17.2049 27.6646 16.8106 27.8479 16.3753C28.0312 15.9399 28.1257 15.4723 28.1257 15C28.1257 14.5276 28.0312 14.06 27.8479 13.6247C27.6646 13.1894 27.3961 12.7951 27.0582 12.465L25.2882 10.74L25.3182 8.26499C25.3235 7.79282 25.2343 7.32436 25.056 6.88713C24.8777 6.4499 24.6138 6.05271 24.2798 5.7189C23.9458 5.3851 23.5485 5.1214 23.1112 4.94332C22.6739 4.76523 22.2054 4.67634 21.7332 4.68186L19.262 4.71186Z" fill="#44B26F"/>
</g>
<defs>
<clipPath id="clip0_15_25">
<rect width="30" height="30" fill="white"/>
</clipPath>
</defs>
</svg>
